<svg width="157" height="67" viewBox="0 0 157 67" fill="none" xmlns="http://www.w3.org/2000/svg">
<path d="M90.64 26.18L90.36 28.14H85.26V32H89.7V33.96H85.26V38.02H90.72V40H82.62V26.18H90.64ZM103.365 26.18L99.7455 32.54L103.725 40H100.765L97.5255 33.78H95.8655V40H93.2255V26.18H95.8655V31.76H97.5655L100.685 26.18H103.365ZM110.361 25.88C111.201 25.88 111.934 26 112.561 26.24C113.188 26.48 113.801 26.8467 114.401 27.34L113.061 28.9C112.248 28.2467 111.394 27.92 110.501 27.92C109.474 27.92 108.648 28.3333 108.021 29.16C107.408 29.9867 107.101 31.2867 107.101 33.06C107.101 34.7933 107.408 36.08 108.021 36.92C108.634 37.76 109.461 38.18 110.501 38.18C111.048 38.18 111.534 38.0867 111.961 37.9C112.388 37.7 112.841 37.42 113.321 37.06L114.561 38.62C114.094 39.1 113.501 39.5 112.781 39.82C112.074 40.14 111.281 40.3 110.401 40.3C109.201 40.3 108.141 40.02 107.221 39.46C106.301 38.9 105.588 38.08 105.081 37C104.574 35.9067 104.321 34.5933 104.321 33.06C104.321 31.5533 104.581 30.26 105.101 29.18C105.634 28.1 106.354 27.28 107.261 26.72C108.181 26.16 109.214 25.88 110.361 25.88ZM128.768 40L127.908 36.8H123.328L122.468 40H119.728L124.028 26.18H127.288L131.568 40H128.768ZM123.848 34.8H127.368L125.608 28.2L123.848 34.8ZM140.992 26.18L140.712 28.28H137.112V40H134.452V28.28H130.732V26.18H140.992ZM155.427 40H152.847L152.487 34.22C152.367 32.1533 152.307 30.5133 152.307 29.3V28.58L149.787 38.5H147.287L144.607 28.56C144.634 29.44 144.647 30.1067 144.647 30.56C144.647 31.7733 144.607 33.02 144.527 34.3L144.187 40H141.627L142.727 26.18H146.127L148.587 35.86L150.907 26.18H154.347L155.427 40Z" fill="#33CC33"/>
<g clip-path="url(#clip0)">
<path fill-rule="evenodd" clip-rule="evenodd" d="M49.7098 20.3133C56.4701 17.6752 59.3416 29.8276 53.1376 32.6815C46.0485 35.9435 42.4165 23.1598 49.7098 20.3133ZM17.109 3.38676C17.2029 3.45429 17.3542 3.42933 17.4055 3.57027C17.5905 4.0694 21.7876 4.53624 23.7856 6.07181C36.4064 15.7756 24.1835 33.8809 11.7198 28.1717C5.8638 25.4881 5.91372 22.1101 4.7936 18.9671L3.64706 17.2568C-1.33987 26.686 -1.05214 44.6725 3.75863 49.495C6.68591 46.7967 4.09628 42.3412 11.6846 38.7269C24.571 32.589 36.0952 50.0734 24.0426 60.2425C22.3411 61.6797 17.501 62.8776 17.1457 63.1081C19.5694 66.4053 31.1038 66.8986 35.2995 65.8313C43.8112 63.6645 48.9816 57.5633 53.9686 51.3667L59.3812 45.4564C60.4338 44.3289 60.7054 43.7124 61.9929 42.3999L69.9731 33.5741C69.1231 31.3926 66.6157 29.4151 65.1418 27.4905L49.1035 9.5217C42.9054 2.98745 35.5461 -1.18325 25.5385 0.299472C23.8179 0.554911 19.6693 1.41372 18.1205 2.45896C18.0339 2.51768 17.9296 2.59549 17.8504 2.65715L17.109 3.38676Z" fill="#33CC33"/>
</g>
<defs>
<clipPath id="clip0">
<rect width="70" height="66.3378" fill="white"/>
</clipPath>
</defs>
</svg>
