<?xml version="1.0"?>
<svg xmlns="http://www.w3.org/2000/svg" xmlns:xlink="http://www.w3.org/1999/xlink" xmlns:svgjs="http://svgjs.com/svgjs" version="1.1" width="512" height="512" x="0" y="0" viewBox="0 0 64 64" style="enable-background:new 0 0 512 512" xml:space="preserve" class=""><g><g xmlns="http://www.w3.org/2000/svg" id="Outline"><g><path d="M10.029,32a1,1,0,0,0-1-1H4V27H8.3a1,1,0,0,0,0-2H4V8H20v3H7a1,1,0,0,0,0,2H20v7.029a1,1,0,0,0,2,0V7a1,1,0,0,0-1-1H17V3a1,1,0,0,0-1-1H8A1,1,0,0,0,7,3V6H3A1,1,0,0,0,2,7V32a1,1,0,0,0,1,1H9.029A1,1,0,0,0,10.029,32ZM9,4h6V6H9Z" fill="#ffffff" data-original="#000000" style="" class=""/><path d="M11.445,22.832a1,1,0,0,0,1.387-.277l2-3A1,1,0,0,0,14,18H11.869l.963-1.445a1,1,0,0,0-1.664-1.11l-2,3A1,1,0,0,0,10,20h2.131l-.963,1.445A1,1,0,0,0,11.445,22.832Z" fill="#ffffff" data-original="#000000" style="" class=""/><path d="M29,52A12,12,0,1,0,17,40,12.013,12.013,0,0,0,29,52Zm0-22A10,10,0,1,1,19,40,10.011,10.011,0,0,1,29,30Z" fill="#ffffff" data-original="#000000" style="" class=""/><path d="M47.385,51.313a1,1,0,0,0-1.414,0l-4.95,4.951L38.55,53.792a1,1,0,0,0-1.229-.146,15.907,15.907,0,0,1-4.556,1.889,1,1,0,0,0-.765.972V60H26V56.507a1,1,0,0,0-.765-.972,15.9,15.9,0,0,1-4.556-1.889,1,1,0,0,0-1.228.146l-2.472,2.472-4.243-4.243,2.472-2.471a1,1,0,0,0,.146-1.229,15.877,15.877,0,0,1-1.889-4.555,1,1,0,1,0-1.944.468A17.825,17.825,0,0,0,13.25,48.68l-2.635,2.633a1,1,0,0,0,0,1.415l5.657,5.657a1,1,0,0,0,1.414,0l2.635-2.635A17.809,17.809,0,0,0,24,57.276V61a1,1,0,0,0,1,1h8a1,1,0,0,0,1-1V57.276a17.84,17.84,0,0,0,3.68-1.526l2.633,2.635a1,1,0,0,0,1.415,0l5.657-5.657A1,1,0,0,0,47.385,51.313Z" fill="#ffffff" data-original="#000000" style="" class=""/><path d="M29,48a8,8,0,0,0,7.037-11.807,1,1,0,0,0-1.758.953,6,6,0,1,1-2.425-2.425,1,1,0,0,0,.953-1.758A8,8,0,1,0,29,48Z" fill="#ffffff" data-original="#000000" style="" class=""/><path d="M28.445,43.832a1,1,0,0,0,1.387-.277l2-3A1,1,0,0,0,31,39H28.869l.963-1.445a1,1,0,0,0-1.664-1.11l-2,3A1,1,0,0,0,27,41h2.131l-.963,1.445A1,1,0,0,0,28.445,43.832Z" fill="#ffffff" data-original="#000000" style="" class=""/><path d="M25,14h6a1,1,0,0,0,0-2H25a1,1,0,0,0,0,2Z" fill="#ffffff" data-original="#000000" style="" class=""/><path d="M57,53a3,3,0,1,0,3,3A3,3,0,0,0,57,53Zm0,4a1,1,0,1,1,1-1A1,1,0,0,1,57,57Z" fill="#ffffff" data-original="#000000" style="" class=""/><path d="M58,50V36a1,1,0,0,0-2,0V50a1,1,0,0,0,2,0Z" fill="#ffffff" data-original="#000000" style="" class=""/><path d="M51,55H48a1,1,0,0,0,0,2h3a1,1,0,0,0,0-2Z" fill="#ffffff" data-original="#000000" style="" class=""/><path d="M61.5,25.536l-2.335-1.348a11.445,11.445,0,0,0,0-4.375L61.5,18.464a1,1,0,0,0,.366-1.366l-3-5.2a1,1,0,0,0-1.366-.366l-2.332,1.347a12.068,12.068,0,0,0-3.792-2.189V8a1,1,0,0,0-1-1h-6a1,1,0,0,0-1,1v2.694a12.043,12.043,0,0,0-3.792,2.188l-2.333-1.346a1,1,0,0,0-1.366.366l-3,5.2a1,1,0,0,0-.1.758.962.962,0,0,0,.071.144H25a1,1,0,0,0-1,1v3.724a17.809,17.809,0,0,0-3.679,1.526l-2.635-2.635a1.029,1.029,0,0,0-1.414,0l-5.657,5.657a1,1,0,0,0,0,1.415L13.25,31.32A17.8,17.8,0,0,0,11.724,35H8a1,1,0,0,0-1,1v8a1,1,0,0,0,2,0V37h3.493a1,1,0,0,0,.972-.766,15.877,15.877,0,0,1,1.889-4.555,1,1,0,0,0-.146-1.229l-2.472-2.471,4.243-4.243,2.472,2.472a1,1,0,0,0,1.228.146,15.9,15.9,0,0,1,4.556-1.889A1,1,0,0,0,26,23.493V20h6v3.493a1,1,0,0,0,.765.972,15.907,15.907,0,0,1,4.556,1.889,1,1,0,0,0,1.229-.146l2.471-2.472,4.243,4.243L42.792,30.45a1,1,0,0,0-.146,1.229,15.912,15.912,0,0,1,1.889,4.555,1,1,0,0,0,.972.766H49v6H45.507a1,1,0,0,0-.972.766,15.912,15.912,0,0,1-1.889,4.555,1,1,0,1,0,1.707,1.043A17.923,17.923,0,0,0,46.276,45H50a1,1,0,0,0,1-1V36a1,1,0,0,0-1-1H46.276a17.84,17.84,0,0,0-1.526-3.68l2.635-2.633a1,1,0,0,0,0-1.415l-3.617-3.616A3.917,3.917,0,0,1,43.376,22a4,4,0,1,1,6.4,3.2,1,1,0,0,0,1.2,1.6,6,6,0,1,0-9.564-5.4,1.035,1.035,0,0,0-1.093.208L37.68,24.25l-.029-.014a9.449,9.449,0,0,1,.039-4.679,1,1,0,0,0-.469-1.111l-2.1-1.215,2-3.463,2.1,1.211a1,1,0,0,0,1.2-.148,10.02,10.02,0,0,1,4.235-2.444,1,1,0,0,0,.728-.962V9h4v2.425a1,1,0,0,0,.728.962,10.026,10.026,0,0,1,4.235,2.444,1,1,0,0,0,1.2.148l2.1-1.21,2,3.462-2.1,1.215a1,1,0,0,0-.469,1.111,9.661,9.661,0,0,1,0,4.886,1,1,0,0,0,.469,1.111l2.1,1.215-2,3.462-2.1-1.21a1,1,0,0,0-1.2.148A10.026,10.026,0,0,1,50.1,31.613a1,1,0,0,0,.271,1.962.983.983,0,0,0,.273-.038,12.03,12.03,0,0,0,4.52-2.42L57.5,32.464a1,1,0,0,0,1.366-.366l3-5.2A1,1,0,0,0,61.5,25.536ZM35.587,19.813A11.657,11.657,0,0,0,35.376,22a11.491,11.491,0,0,0,.08,1.234c-.48-.185-.961-.367-1.456-.51V19a.9.9,0,0,0-.024-.117Z" fill="#ffffff" data-original="#000000" style="" class=""/></g></g></g></svg>
