<svg width="67" height="67" viewBox="0 0 67 67" fill="none" xmlns="http://www.w3.org/2000/svg">
<path d="M50.5 22.0625C47.9041 22.0625 45.3665 22.8323 43.2081 24.2745C41.0498 25.7167 39.3675 27.7665 38.3741 30.1648C37.3807 32.5631 37.1208 35.2021 37.6272 37.7481C38.1336 40.2941 39.3837 42.6327 41.2192 44.4683C43.0548 46.3038 45.3934 47.5539 47.9394 48.0603C50.4854 48.5667 53.1244 48.3068 55.5227 47.3134C57.921 46.32 59.9708 44.6377 61.413 42.4793C62.8552 40.321 63.625 37.7834 63.625 35.1875C63.6211 31.7077 62.237 28.3716 59.7765 25.911C57.3159 23.4505 53.9798 22.0664 50.5 22.0625ZM50.5 46.125C48.3368 46.125 46.2221 45.4835 44.4235 44.2817C42.6248 43.0799 41.2229 41.3717 40.3951 39.3731C39.5672 37.3745 39.3506 35.1754 39.7727 33.0537C40.1947 30.932 41.2364 28.9832 42.766 27.4535C44.2957 25.9239 46.2445 24.8822 48.3662 24.4602C50.4879 24.0381 52.687 24.2547 54.6856 25.0826C56.6842 25.9104 58.3924 27.3123 59.5942 29.1109C60.796 30.9096 61.4375 33.0243 61.4375 35.1875C61.4342 38.0873 60.2808 40.8674 58.2303 42.9178C56.1799 44.9683 53.3998 46.1217 50.5 46.125Z" fill="white"/>
<path d="M50.5 31.9062H52.6875C52.9776 31.9062 53.2558 31.791 53.4609 31.5859C53.666 31.3808 53.7812 31.1026 53.7812 30.8125C53.7812 30.5224 53.666 30.2442 53.4609 30.0391C53.2558 29.834 52.9776 29.7188 52.6875 29.7188H51.5938V28.625C51.5938 28.3349 51.4785 28.0567 51.2734 27.8516C51.0683 27.6465 50.7901 27.5312 50.5 27.5312C50.2099 27.5312 49.9317 27.6465 49.7266 27.8516C49.5215 28.0567 49.4062 28.3349 49.4062 28.625V29.9069C48.6768 30.1651 48.0621 30.6728 47.6707 31.3404C47.2794 32.0079 47.1365 32.7923 47.2673 33.5549C47.3982 34.3176 47.7944 35.0094 48.3859 35.5083C48.9774 36.0072 49.7262 36.2809 50.5 36.2812C50.7901 36.2812 51.0683 36.3965 51.2734 36.6016C51.4785 36.8067 51.5938 37.0849 51.5938 37.375C51.5938 37.6651 51.4785 37.9433 51.2734 38.1484C51.0683 38.3535 50.7901 38.4688 50.5 38.4688H48.3125C48.0224 38.4688 47.7442 38.584 47.5391 38.7891C47.334 38.9942 47.2188 39.2724 47.2188 39.5625C47.2188 39.8526 47.334 40.1308 47.5391 40.3359C47.7442 40.541 48.0224 40.6562 48.3125 40.6562H49.4062V41.75C49.4062 42.0401 49.5215 42.3183 49.7266 42.5234C49.9317 42.7285 50.2099 42.8438 50.5 42.8438C50.7901 42.8438 51.0683 42.7285 51.2734 42.5234C51.4785 42.3183 51.5938 42.0401 51.5938 41.75V40.4681C52.3232 40.2099 52.9379 39.7022 53.3293 39.0346C53.7206 38.3671 53.8635 37.5827 53.7327 36.8201C53.6018 36.0574 53.2056 35.3656 52.6141 34.8667C52.0226 34.3678 51.2738 34.0941 50.5 34.0938C50.2099 34.0938 49.9317 33.9785 49.7266 33.7734C49.5215 33.5683 49.4062 33.2901 49.4062 33C49.4062 32.7099 49.5215 32.4317 49.7266 32.2266C49.9317 32.0215 50.2099 31.9062 50.5 31.9062Z" fill="white"/>
<path d="M60.7468 49.0397L38.5907 54.8203L33.6471 52.8428L36.3823 52.1622C37.2427 51.9473 37.9923 51.4198 38.4851 50.6824C38.9778 49.945 39.1783 49.0506 39.0477 48.1735C38.917 47.2963 38.4644 46.4992 37.7781 45.9375C37.0918 45.3757 36.221 45.0896 35.3353 45.1349L16.6151 46.125L12.2188 46.1217V45.0312C12.2188 44.7412 12.1035 44.463 11.8984 44.2579C11.6933 44.0527 11.4151 43.9375 11.125 43.9375H3.92184L11.5781 36.2812H19.875C20.0186 36.2813 20.1609 36.253 20.2936 36.198C20.4263 36.143 20.5469 36.0625 20.6484 35.9609L36.7342 19.875H46.125C46.2686 19.875 46.4109 19.8467 46.5436 19.7918C46.6763 19.7368 46.7969 19.6562 46.8984 19.5547L62.5312 3.92184V7.84375C62.5312 8.13383 62.6465 8.41203 62.8516 8.61715C63.0567 8.82227 63.3349 8.9375 63.625 8.9375C63.9151 8.9375 64.1933 8.82227 64.3984 8.61715C64.6035 8.41203 64.7188 8.13383 64.7188 7.84375V1.28125C64.7188 0.991169 64.6035 0.71297 64.3984 0.507852C64.1933 0.302734 63.9151 0.1875 63.625 0.1875H57.0625C56.7724 0.1875 56.4942 0.302734 56.2891 0.507852C56.084 0.71297 55.9688 0.991169 55.9688 1.28125C55.9688 1.57133 56.084 1.84953 56.2891 2.05465C56.4942 2.25977 56.7724 2.375 57.0625 2.375H60.9844L45.6719 17.6875H36.2812C36.1376 17.6875 35.9954 17.7158 35.8627 17.7707C35.73 17.8257 35.6094 17.9063 35.5078 18.0078L19.4221 34.0938H11.125C10.9814 34.0937 10.8391 34.122 10.7064 34.177C10.5737 34.232 10.4532 34.3125 10.3516 34.4141L0.507833 44.2578C0.406119 44.3593 0.325457 44.4798 0.270484 44.6126C0.21551 44.7453 0.187309 44.8876 0.187501 45.0312V64.7188C0.187501 65.0088 0.302735 65.287 0.507853 65.4921C0.712971 65.6973 0.99117 65.8125 1.28125 65.8125H11.125C11.4151 65.8125 11.6933 65.6973 11.8984 65.4921C12.1035 65.287 12.2188 65.0088 12.2188 64.7188V63.4808L18.7812 62.5493L37.1746 66.8771C37.3883 66.9274 37.6122 66.9121 37.8172 66.8334L63.3152 57.0264C64.3172 56.641 65.1337 55.8867 65.597 54.9183C66.0603 53.9498 66.1354 52.8408 65.8067 51.8188C65.478 50.7968 64.7706 49.9393 63.8296 49.4225C62.8886 48.9057 61.7855 48.7687 60.7467 49.0397H60.7468ZM10.0313 63.625H2.375V46.125H10.0313V63.625ZM16.7013 48.311L35.4473 47.319C35.6973 47.3064 35.9461 47.3621 36.1669 47.48C36.3878 47.5979 36.5725 47.7736 36.7012 47.9883C36.83 48.203 36.898 48.4486 36.8979 48.699C36.8979 48.9494 36.8298 49.195 36.701 49.4097C36.6082 49.5654 36.4854 49.7011 36.3397 49.8091C36.1941 49.9171 36.0285 49.995 35.8525 50.0386L25.0791 52.7195C24.9388 52.7533 24.8066 52.8146 24.6902 52.8998C24.5737 52.9849 24.4752 53.0923 24.4004 53.2157C24.3256 53.3391 24.276 53.476 24.2543 53.6187C24.2327 53.7613 24.2395 53.9068 24.2743 54.0469C24.3092 54.1869 24.3714 54.3186 24.4573 54.4345C24.5433 54.5503 24.6514 54.6481 24.7753 54.722C24.8992 54.7959 25.0365 54.8446 25.1793 54.8652C25.3221 54.8858 25.4676 54.878 25.6073 54.8422L30.0154 53.7453L38.1119 56.9839C38.3289 57.0706 38.568 57.0856 38.7941 57.0267L61.298 51.156C61.7956 51.0272 62.3236 51.0936 62.7739 51.3414C63.2242 51.5893 63.5626 52 63.7199 52.4893C63.8772 52.9787 63.8414 53.5096 63.6199 53.9734C63.3984 54.4373 63.008 54.7988 62.5285 54.9841L37.3477 64.6705L19.082 60.3729C18.9496 60.3416 18.8126 60.3354 18.6779 60.3547L12.2188 61.2714V48.3092L16.7013 48.311Z" fill="white"/>
</svg>
