<svg width="27" height="27" viewBox="0 0 27 27" fill="none" xmlns="http://www.w3.org/2000/svg">
<path d="M8.63999 1.62C4.76954 1.62 1.62 4.76954 1.62 8.63999V18.36C1.62 22.2305 4.76954 25.38 8.63999 25.38H18.36C22.2305 25.38 25.38 22.2305 25.38 18.36V8.63999C25.38 4.76954 22.2305 1.62 18.36 1.62H8.63999ZM8.63999 2.7H18.36C21.6467 2.7 24.3 5.35329 24.3 8.63999V18.36C24.3 21.6467 21.6467 24.3 18.36 24.3H8.63999C5.35329 24.3 2.7 21.6467 2.7 18.36V8.63999C2.7 5.35329 5.35329 2.7 8.63999 2.7ZM19.98 5.93999C19.6936 5.93999 19.4189 6.05378 19.2163 6.25632C19.0138 6.45886 18.9 6.73356 18.9 7.01999C18.9 7.30643 19.0138 7.58113 19.2163 7.78367C19.4189 7.98621 19.6936 8.09999 19.98 8.09999C20.2664 8.09999 20.5411 7.98621 20.7437 7.78367C20.9462 7.58113 21.06 7.30643 21.06 7.01999C21.06 6.73356 20.9462 6.45886 20.7437 6.25632C20.5411 6.05378 20.2664 5.93999 19.98 5.93999ZM13.5 7.55999C10.2258 7.55999 7.55999 10.2258 7.55999 13.5C7.55999 16.7742 10.2258 19.44 13.5 19.44C16.7742 19.44 19.44 16.7742 19.44 13.5C19.44 10.2258 16.7742 7.55999 13.5 7.55999ZM13.5 8.63999C16.1905 8.63999 18.36 10.8095 18.36 13.5C18.36 16.1905 16.1905 18.36 13.5 18.36C10.8095 18.36 8.63999 16.1905 8.63999 13.5C8.63999 10.8095 10.8095 8.63999 13.5 8.63999Z" fill="black"/>
</svg>
