<svg width="70" height="70" viewBox="0 0 70 70" fill="none" xmlns="http://www.w3.org/2000/svg">
<path d="M52.5 24.0625C49.9041 24.0625 47.3665 24.8323 45.2081 26.2745C43.0498 27.7167 41.3675 29.7665 40.3741 32.1648C39.3807 34.5631 39.1208 37.2021 39.6272 39.7481C40.1336 42.2941 41.3837 44.6327 43.2192 46.4683C45.0548 48.3038 47.3934 49.5539 49.9394 50.0603C52.4854 50.5667 55.1244 50.3068 57.5227 49.3134C59.921 48.32 61.9708 46.6377 63.413 44.4793C64.8552 42.321 65.625 39.7834 65.625 37.1875C65.6211 33.7077 64.237 30.3716 61.7765 27.911C59.3159 25.4505 55.9798 24.0664 52.5 24.0625ZM52.5 48.125C50.3368 48.125 48.2221 47.4835 46.4235 46.2817C44.6248 45.0799 43.2229 43.3717 42.3951 41.3731C41.5672 39.3745 41.3506 37.1754 41.7727 35.0537C42.1947 32.932 43.2364 30.9832 44.766 29.4535C46.2957 27.9239 48.2445 26.8822 50.3662 26.4602C52.4879 26.0381 54.687 26.2547 56.6856 27.0826C58.6842 27.9104 60.3924 29.3123 61.5942 31.1109C62.796 32.9096 63.4375 35.0243 63.4375 37.1875C63.4342 40.0873 62.2808 42.8674 60.2303 44.9178C58.1799 46.9683 55.3998 48.1217 52.5 48.125Z" fill="white"/>
<path d="M52.5 33.9062H54.6875C54.9776 33.9062 55.2558 33.791 55.4609 33.5859C55.666 33.3808 55.7812 33.1026 55.7812 32.8125C55.7812 32.5224 55.666 32.2442 55.4609 32.0391C55.2558 31.834 54.9776 31.7188 54.6875 31.7188H53.5938V30.625C53.5938 30.3349 53.4785 30.0567 53.2734 29.8516C53.0683 29.6465 52.7901 29.5312 52.5 29.5312C52.2099 29.5312 51.9317 29.6465 51.7266 29.8516C51.5215 30.0567 51.4062 30.3349 51.4062 30.625V31.9069C50.6768 32.1651 50.0621 32.6728 49.6707 33.3404C49.2794 34.0079 49.1365 34.7923 49.2673 35.5549C49.3982 36.3176 49.7944 37.0094 50.3859 37.5083C50.9774 38.0072 51.7262 38.2809 52.5 38.2812C52.7901 38.2812 53.0683 38.3965 53.2734 38.6016C53.4785 38.8067 53.5938 39.0849 53.5938 39.375C53.5938 39.6651 53.4785 39.9433 53.2734 40.1484C53.0683 40.3535 52.7901 40.4688 52.5 40.4688H50.3125C50.0224 40.4688 49.7442 40.584 49.5391 40.7891C49.334 40.9942 49.2188 41.2724 49.2188 41.5625C49.2188 41.8526 49.334 42.1308 49.5391 42.3359C49.7442 42.541 50.0224 42.6562 50.3125 42.6562H51.4062V43.75C51.4062 44.0401 51.5215 44.3183 51.7266 44.5234C51.9317 44.7285 52.2099 44.8438 52.5 44.8438C52.7901 44.8438 53.0683 44.7285 53.2734 44.5234C53.4785 44.3183 53.5938 44.0401 53.5938 43.75V42.4681C54.3232 42.2099 54.9379 41.7022 55.3293 41.0346C55.7206 40.3671 55.8635 39.5827 55.7327 38.8201C55.6018 38.0574 55.2056 37.3656 54.6141 36.8667C54.0226 36.3678 53.2738 36.0941 52.5 36.0938C52.2099 36.0938 51.9317 35.9785 51.7266 35.7734C51.5215 35.5683 51.4062 35.2901 51.4062 35C51.4062 34.7099 51.5215 34.4317 51.7266 34.2266C51.9317 34.0215 52.2099 33.9062 52.5 33.9062Z" fill="white"/>
<path d="M62.7468 51.0397L40.5907 56.8203L35.6471 54.8428L38.3823 54.1622C39.2427 53.9473 39.9923 53.4198 40.4851 52.6824C40.9778 51.945 41.1783 51.0506 41.0477 50.1735C40.917 49.2963 40.4644 48.4992 39.7781 47.9375C39.0918 47.3757 38.221 47.0896 37.3353 47.1349L18.6151 48.125L14.2188 48.1217V47.0312C14.2188 46.7412 14.1035 46.463 13.8984 46.2579C13.6933 46.0527 13.4151 45.9375 13.125 45.9375H5.92184L13.5781 38.2812H21.875C22.0186 38.2813 22.1609 38.253 22.2936 38.198C22.4263 38.143 22.5469 38.0625 22.6484 37.9609L38.7342 21.875H48.125C48.2686 21.875 48.4109 21.8467 48.5436 21.7918C48.6763 21.7368 48.7969 21.6562 48.8984 21.5547L64.5312 5.92184V9.84375C64.5312 10.1338 64.6465 10.412 64.8516 10.6171C65.0567 10.8223 65.3349 10.9375 65.625 10.9375C65.9151 10.9375 66.1933 10.8223 66.3984 10.6171C66.6035 10.412 66.7188 10.1338 66.7188 9.84375V3.28125C66.7188 2.99117 66.6035 2.71297 66.3984 2.50785C66.1933 2.30273 65.9151 2.1875 65.625 2.1875H59.0625C58.7724 2.1875 58.4942 2.30273 58.2891 2.50785C58.084 2.71297 57.9688 2.99117 57.9688 3.28125C57.9688 3.57133 58.084 3.84953 58.2891 4.05465C58.4942 4.25977 58.7724 4.375 59.0625 4.375H62.9844L47.6719 19.6875H38.2812C38.1376 19.6875 37.9954 19.7158 37.8627 19.7707C37.73 19.8257 37.6094 19.9063 37.5078 20.0078L21.4221 36.0938H13.125C12.9814 36.0937 12.8391 36.122 12.7064 36.177C12.5737 36.232 12.4532 36.3125 12.3516 36.4141L2.50783 46.2578C2.40612 46.3593 2.32546 46.4798 2.27048 46.6126C2.21551 46.7453 2.18731 46.8876 2.1875 47.0312V66.7188C2.1875 67.0088 2.30273 67.287 2.50785 67.4921C2.71297 67.6973 2.99117 67.8125 3.28125 67.8125H13.125C13.4151 67.8125 13.6933 67.6973 13.8984 67.4921C14.1035 67.287 14.2188 67.0088 14.2188 66.7188V65.4808L20.7812 64.5493L39.1746 68.8771C39.3883 68.9274 39.6122 68.9121 39.8172 68.8334L65.3152 59.0264C66.3172 58.641 67.1337 57.8867 67.597 56.9183C68.0603 55.9498 68.1354 54.8408 67.8067 53.8188C67.478 52.7968 66.7706 51.9393 65.8296 51.4225C64.8886 50.9057 63.7855 50.7687 62.7467 51.0397H62.7468ZM12.0313 65.625H4.375V48.125H12.0313V65.625ZM18.7013 50.311L37.4473 49.319C37.6973 49.3064 37.9461 49.3621 38.1669 49.48C38.3878 49.5979 38.5725 49.7736 38.7012 49.9883C38.83 50.203 38.898 50.4486 38.8979 50.699C38.8979 50.9494 38.8298 51.195 38.701 51.4097C38.6082 51.5654 38.4854 51.7011 38.3397 51.8091C38.1941 51.9171 38.0285 51.995 37.8525 52.0386L27.0791 54.7195C26.9388 54.7533 26.8066 54.8146 26.6902 54.8998C26.5737 54.9849 26.4752 55.0923 26.4004 55.2157C26.3256 55.3391 26.276 55.476 26.2543 55.6187C26.2327 55.7613 26.2395 55.9068 26.2743 56.0469C26.3092 56.1869 26.3714 56.3186 26.4573 56.4345C26.5433 56.5503 26.6514 56.6481 26.7753 56.722C26.8992 56.7959 27.0365 56.8446 27.1793 56.8652C27.3221 56.8858 27.4676 56.878 27.6073 56.8422L32.0154 55.7453L40.1119 58.9839C40.3289 59.0706 40.568 59.0856 40.7941 59.0267L63.298 53.156C63.7956 53.0272 64.3236 53.0936 64.7739 53.3414C65.2242 53.5893 65.5626 54 65.7199 54.4893C65.8772 54.9787 65.8414 55.5096 65.6199 55.9734C65.3984 56.4373 65.008 56.7988 64.5285 56.9841L39.3477 66.6705L21.082 62.3729C20.9496 62.3416 20.8126 62.3354 20.6779 62.3547L14.2188 63.2714V50.3092L18.7013 50.311Z" fill="white"/>
</svg>
