<svg width="70" height="70" viewBox="0 0 70 70" fill="none" xmlns="http://www.w3.org/2000/svg">
<path d="M67.2248 14.0666C66.8604 12.6735 66.3058 11.3388 65.5699 10.0869L66.8814 7.46385L62.5373 3.11972L59.9142 4.43123C58.6623 3.69527 57.3276 3.13957 55.9334 2.77627L55.0078 0H48.8643L47.9387 2.77627C46.5445 3.13957 45.2098 3.69416 43.9578 4.43123L41.3337 3.11972L36.9896 7.46275L38.3011 10.0858C37.5662 11.3377 37.0105 12.6724 36.6461 14.0655L33.871 14.9922V18.0645H5.64516C2.5326 18.0645 0 20.5971 0 23.7097V57.5806C0 60.6932 2.5326 63.2258 5.64516 63.2258H20.3226V67.7419H15.8065V70H54.1936V67.7419H49.6774V63.2258H64.3548C67.4674 63.2258 70 60.6932 70 57.5806V14.9922L67.2248 14.0666ZM47.4194 67.7419H22.5806V63.2258H47.4194V67.7419ZM64.3548 60.9677H5.64516C3.77796 60.9677 2.25806 59.4478 2.25806 57.5806V56.4516H67.7419V57.5806C67.7419 59.4478 66.222 60.9677 64.3548 60.9677ZM67.7419 54.1936H2.25806V23.7097C2.25806 21.8425 3.77796 20.3226 5.64516 20.3226H33.871V21.1368L36.6461 22.0624C37.0105 23.4555 37.5651 24.7902 38.3011 26.0422L36.9896 28.6652L41.3337 33.0093L43.9567 31.6978C45.2087 32.4338 46.5434 32.9895 47.9376 33.3528L48.8632 36.129H55.0067L55.9323 33.3528C57.3265 32.9895 58.6612 32.4349 59.9131 31.6978L62.5361 33.0093L66.8803 28.6652L65.5688 26.0422C66.3036 24.7902 66.8588 23.4555 67.2237 22.0624L67.7419 21.8899V54.1936ZM67.7419 19.5083L65.3053 20.3215L65.1691 20.9494C64.8278 22.5195 64.2082 24.009 63.3294 25.3762L62.9821 25.917L64.1349 28.2203L62.0924 30.2628L59.788 29.1101L59.2472 29.4585C57.88 30.3372 56.3904 30.9569 54.8215 31.2981L54.1936 31.4343L53.3793 33.871H50.4906L49.6774 31.4343L49.0495 31.2981C47.4794 30.9569 45.991 30.3372 44.6238 29.4585L44.083 29.1101L41.7786 30.2628L39.7361 28.2203L40.8888 25.917L40.5415 25.3762C39.6617 24.009 39.0431 22.5195 38.7019 20.9494L38.5657 20.3215L36.129 19.5083V16.6196L38.5657 15.8065L38.7019 15.1785C39.0431 13.6085 39.6628 12.1189 40.5415 10.7517L40.8888 10.2109L39.7361 7.90764L41.7786 5.86512L44.083 7.01786L44.6238 6.66945C45.991 5.7907 47.4805 5.17106 49.0495 4.82981L49.6774 4.69364L50.4917 2.25806H53.3804L54.1936 4.69475L54.8215 4.83091C56.3915 5.17216 57.88 5.7918 59.2472 6.67055L59.788 7.01896L62.0924 5.86623L64.1349 7.90874L62.9821 10.212L63.3294 10.7528C64.2093 12.12 64.8278 13.6096 65.1691 15.1796L65.3053 15.8076L67.7419 16.6207V19.5083Z" fill="white"/>
<path d="M51.9355 6.77417C45.7099 6.77417 40.6452 11.8388 40.6452 18.0645C40.6452 24.2902 45.7099 29.3548 51.9355 29.3548C58.1612 29.3548 63.2258 24.2902 63.2258 18.0645C63.2258 11.8388 58.1612 6.77417 51.9355 6.77417ZM51.9355 27.0967C46.9552 27.0967 42.9033 23.0448 42.9033 18.0645C42.9033 13.0842 46.9552 9.03223 51.9355 9.03223C56.9158 9.03223 60.9678 13.0842 60.9678 18.0645C60.9678 23.0448 56.9158 27.0967 51.9355 27.0967Z" fill="white"/>
<path d="M51.9355 13.5484C49.4448 13.5484 47.4193 15.5738 47.4193 18.0645C47.4193 20.5552 49.4448 22.5807 51.9355 22.5807C54.4262 22.5807 56.4516 20.5552 56.4516 18.0645C56.4516 15.5738 54.4262 13.5484 51.9355 13.5484ZM51.9355 20.3226C50.6901 20.3226 49.6774 19.3099 49.6774 18.0645C49.6774 16.8192 50.6901 15.8065 51.9355 15.8065C53.1808 15.8065 54.1935 16.8192 54.1935 18.0645C54.1935 19.3099 53.1808 20.3226 51.9355 20.3226Z" fill="white"/>
<path d="M6.77421 27.0967V28.2258C6.77421 29.4711 5.7615 30.4838 4.51614 30.4838V32.7419C5.7615 32.7419 6.77421 33.7546 6.77421 35V36.129C6.77421 37.9962 8.2941 39.5161 10.1613 39.5161H11.2903V37.258H10.1613C9.53946 37.258 9.03227 36.752 9.03227 36.129V35C9.03227 33.6532 8.43964 32.4404 7.50025 31.6129C8.43964 30.7854 9.03227 29.5726 9.03227 28.2258V27.0967C9.03227 26.4738 9.53946 25.9677 10.1613 25.9677H11.2903V23.7097H10.1613C8.2941 23.7097 6.77421 25.2295 6.77421 27.0967Z" fill="white"/>
<path d="M41.7742 38.3871V37.2581C41.7742 35.3909 40.2543 33.871 38.3871 33.871H37.2581V36.129H38.3871C39.0089 36.129 39.5161 36.6351 39.5161 37.2581V38.3871C39.5161 39.7339 40.1087 40.9467 41.0481 41.7742C40.1087 42.6017 39.5161 43.8145 39.5161 45.1613V46.2903C39.5161 46.9133 39.0089 47.4193 38.3871 47.4193H37.2581V49.6774H38.3871C40.2543 49.6774 41.7742 48.1575 41.7742 46.2903V45.1613C41.7742 43.9159 42.7869 42.9032 44.0322 42.9032V40.6452C42.7869 40.6452 41.7742 39.6324 41.7742 38.3871Z" fill="white"/>
<path d="M13.5484 24.8387H35V27.0967H13.5484V24.8387Z" fill="white"/>
<path d="M18.0645 29.3549H35V31.6129H18.0645V29.3549Z" fill="white"/>
<path d="M13.5484 29.3549H15.8065V31.6129H13.5484V29.3549Z" fill="white"/>
<path d="M13.5484 33.871H35V36.1291H13.5484V33.871Z" fill="white"/>
<path d="M13.5484 38.3871H35V40.6452H13.5484V38.3871Z" fill="white"/>
<path d="M32.7419 42.9032H35V45.1613H32.7419V42.9032Z" fill="white"/>
<path d="M13.5484 42.9032H30.4839V45.1613H13.5484V42.9032Z" fill="white"/>
<path d="M13.5484 47.4193H35V49.6774H13.5484V47.4193Z" fill="white"/>
</svg>
