<svg width="75" height="75" viewBox="0 0 75 75" fill="none" xmlns="http://www.w3.org/2000/svg">
<path d="M41.8378 72.973H33.1621C32.698 72.9696 32.2487 72.8084 31.8883 72.5159C31.5278 72.2235 31.2776 71.8171 31.1787 71.3635L30.2392 66.674C27.3412 65.9524 24.5678 64.8004 22.0115 63.2564L18.0344 65.9007C17.6476 66.1591 17.1836 66.2765 16.7204 66.2334C16.2572 66.1902 15.8229 65.989 15.4905 65.6635L9.35674 59.5206C9.026 59.1855 8.82178 58.746 8.7789 58.2771C8.73602 57.8082 8.85714 57.3389 9.1216 56.9493L11.7567 52.9966C10.2095 50.4401 9.05825 47.6641 8.34221 44.7628L3.64863 43.8243C3.19269 43.7271 2.78354 43.4772 2.48872 43.1161C2.19391 42.7549 2.03104 42.304 2.02701 41.8378V33.1622C2.03038 32.698 2.19155 32.2488 2.48404 31.8883C2.77653 31.5279 3.18293 31.2776 3.63647 31.1787L8.33512 30.2362C9.05131 27.3355 10.2022 24.5598 11.7486 22.0034L9.09931 18.0406C8.84039 17.6535 8.72262 17.1891 8.76581 16.7255C8.809 16.2618 9.01052 15.8272 9.33647 15.4946L15.4794 9.35271C15.8139 9.02143 16.2529 8.8165 16.7217 8.77288C17.1904 8.72925 17.6598 8.84965 18.0496 9.11352L22.0023 11.7537C24.5605 10.2071 27.3364 9.05331 30.2371 8.33109L31.1757 3.64866C31.2729 3.19272 31.5228 2.78357 31.8839 2.48875C32.2451 2.19394 32.696 2.03107 33.1621 2.02704H41.8378C42.302 2.03041 42.7512 2.19159 43.1117 2.48407C43.4721 2.77656 43.7224 3.18296 43.8213 3.6365L44.7608 8.32603C47.6664 9.0452 50.4465 10.1998 53.0067 11.7507L56.9594 9.10035C57.3465 8.84143 57.8109 8.72367 58.2745 8.76686C58.7382 8.81005 59.1728 9.01156 59.5054 9.33751L65.6483 15.4794C65.9806 15.8133 66.1863 16.2525 66.2299 16.7215C66.2736 17.1906 66.1525 17.6602 65.8875 18.0497L63.2523 22.0115C64.7969 24.5672 65.949 27.3403 66.6699 30.2382L71.3432 31.1757C71.8007 31.2714 72.2117 31.5205 72.5081 31.8818C72.8045 32.2431 72.9685 32.6949 72.973 33.1622V41.8378C72.9696 42.302 72.8084 42.7513 72.5159 43.1117C72.2234 43.4722 71.817 43.7224 71.3635 43.8213L66.674 44.7618C65.953 47.6597 64.801 50.4328 63.2564 52.9885L65.9017 56.9655C66.1599 57.3525 66.2772 57.8166 66.2339 58.2798C66.1905 58.743 65.9891 59.1772 65.6635 59.5095L59.5206 65.6524C59.186 65.9835 58.747 66.1883 58.2783 66.2319C57.8096 66.2755 57.3403 66.1552 56.9503 65.8916L52.9976 63.2493C50.439 64.7997 47.6606 65.9543 44.7567 66.674L43.8243 71.3514C43.727 71.8073 43.4772 72.2164 43.116 72.5113C42.7549 72.8061 42.304 72.9689 41.8378 72.973ZM21.9932 61.0368C22.1829 61.0363 22.3689 61.0897 22.5294 61.1909C25.2314 62.9072 28.2091 64.1446 31.3317 64.8487C31.5228 64.8919 31.6972 64.9896 31.8339 65.1299C31.9706 65.2702 32.0637 65.4471 32.102 65.6392L33.1632 70.946H41.8287L42.901 65.6392C42.9393 65.447 43.0326 65.27 43.1695 65.1296C43.3064 64.9893 43.481 64.8917 43.6723 64.8487C46.7949 64.1482 49.7722 62.9109 52.4716 61.1919C52.6399 61.0892 52.8338 61.036 53.0309 61.0383C53.2281 61.0406 53.4206 61.0984 53.5865 61.2051L58.0855 64.2152L64.2152 58.0875L61.2598 53.6534C61.2216 53.6072 61.1877 53.5577 61.1584 53.5054C61.0702 53.347 61.0261 53.1677 61.0307 52.9864C61.0354 52.8051 61.0886 52.6284 61.1848 52.4747C62.9016 49.7729 64.139 46.7951 64.8426 43.6723C64.8858 43.4813 64.9835 43.3068 65.1238 43.1701C65.2641 43.0334 65.441 42.9403 65.6331 42.902L70.9459 41.8368V33.1622L65.6392 32.098C65.4471 32.0597 65.2701 31.9666 65.1298 31.8299C64.9895 31.6932 64.8919 31.5188 64.8486 31.3277C64.1451 28.2049 62.9076 25.2271 61.1909 22.5253C61.0939 22.3721 61.0398 22.1956 61.0343 22.0143C61.0287 21.833 61.072 21.6535 61.1594 21.4946C61.1947 21.4299 61.2372 21.3694 61.2861 21.3142L64.2132 16.9125L58.0865 10.7808L53.5905 13.7949C53.4248 13.9018 53.2322 13.9598 53.035 13.9621C52.8378 13.9644 52.6439 13.9111 52.4757 13.8081C49.7763 12.0891 46.799 10.8518 43.6763 10.1514C43.4851 10.1083 43.3104 10.0107 43.1735 9.87038C43.0367 9.73007 42.9434 9.55307 42.9051 9.36082L41.8368 4.05407H33.1621L32.099 9.36082C32.0607 9.55294 31.9676 9.72984 31.8309 9.87014C31.6942 10.0104 31.5198 10.1081 31.3287 10.1514C28.2061 10.8555 25.2283 12.0929 22.5263 13.8091C22.3607 13.914 22.1681 13.9686 21.972 13.9663C21.7759 13.964 21.5847 13.9048 21.4216 13.796L16.9115 10.7858L10.7807 16.9125L13.7959 21.4206C13.9048 21.5837 13.9639 21.7749 13.9663 21.971C13.9686 22.1671 13.914 22.3597 13.8091 22.5253C12.0929 25.2252 10.8584 28.2025 10.1605 31.3247C10.1156 31.5267 10.01 31.7102 9.8578 31.8504C9.70561 31.9907 9.51413 32.0809 9.3091 32.1091L4.05404 33.1632V41.8378L9.34356 42.898C9.54117 42.9329 9.72412 43.0252 9.86958 43.1635C10.015 43.3017 10.1166 43.4798 10.1615 43.6753C10.8594 46.7975 12.0939 49.7748 13.8101 52.4747C13.915 52.6401 13.9696 52.8324 13.9675 53.0283C13.9653 53.2242 13.9064 53.4153 13.798 53.5784L10.798 58.0875L16.9145 64.2203L21.3486 61.2628C21.5309 61.1167 21.7576 61.037 21.9912 61.0368H21.9932Z" fill="white"/>
<path d="M46.4504 56.696C46.2209 56.696 45.9983 56.6182 45.8188 56.4753C45.6394 56.3323 45.5137 56.1327 45.4624 55.9091C45.4111 55.6855 45.4372 55.4511 45.5364 55.2443C45.6356 55.0374 45.802 54.8703 46.0085 54.7703C46.8813 54.3496 47.7158 53.8538 48.5027 53.2885C48.7211 53.1426 48.9876 53.0871 49.2461 53.1338C49.5046 53.1806 49.7348 53.3258 49.8883 53.5389C50.0418 53.7521 50.1065 54.0165 50.0689 54.2765C50.0313 54.5364 49.8942 54.7716 49.6865 54.9324C48.8043 55.5652 47.869 56.1207 46.8912 56.5926C46.754 56.6599 46.6032 56.6952 46.4504 56.696Z" fill="white"/>
<path d="M37.5 58.7838C33.2905 58.7838 29.1755 57.5355 25.6754 55.1968C22.1753 52.8581 19.4473 49.5341 17.8364 45.645C16.2254 41.7559 15.8039 37.4764 16.6252 33.3477C17.4464 29.2191 19.4735 25.4267 22.4501 22.4501C25.4267 19.4735 29.2191 17.4464 33.3478 16.6252C37.4764 15.8039 41.7559 16.2254 45.645 17.8364C49.5341 19.4473 52.8581 22.1753 55.1968 25.6754C57.5355 29.1755 58.7838 33.2905 58.7838 37.5C58.7838 37.8558 58.7726 38.2003 58.7514 38.5561C58.7306 38.8228 58.6068 39.0709 58.4063 39.248C58.2058 39.4251 57.9443 39.5171 57.677 39.5047C57.4088 39.4881 57.1581 39.3655 56.9802 39.164C56.8023 38.9626 56.7118 38.6987 56.7284 38.4304C56.7477 38.1172 56.7568 37.8132 56.7568 37.5C56.7568 33.6914 55.6274 29.9683 53.5114 26.8015C51.3955 23.6348 48.388 21.1666 44.8693 19.7091C41.3505 18.2516 37.4787 17.8702 33.7432 18.6133C30.0078 19.3563 26.5765 21.1903 23.8834 23.8834C21.1903 26.5765 19.3563 30.0078 18.6133 33.7432C17.8702 37.4786 18.2516 41.3505 19.7091 44.8692C21.1666 48.388 23.6348 51.3955 26.8015 53.5114C29.9683 55.6274 33.6914 56.7568 37.5 56.7568C37.8041 56.7568 38.1081 56.7476 38.4122 56.7284C38.5453 56.7201 38.6787 56.738 38.8049 56.7813C38.931 56.8245 39.0474 56.8922 39.1474 56.9804C39.2474 57.0687 39.329 57.1757 39.3876 57.2955C39.4463 57.4153 39.4807 57.5455 39.489 57.6786C39.4974 57.8116 39.4794 57.9451 39.4361 58.0712C39.3929 58.1974 39.3252 58.3138 39.237 58.4138C39.1487 58.5138 39.0417 58.5954 38.9219 58.654C38.8021 58.7126 38.672 58.7471 38.5389 58.7554C38.1912 58.7737 37.8456 58.7838 37.5 58.7838Z" fill="white"/>
<path d="M54.1104 50.1081C53.9238 50.1081 53.7408 50.0566 53.5816 49.9592C53.4224 49.8618 53.2932 49.7224 53.2082 49.5562C53.1232 49.3901 53.0857 49.2037 53.0999 49.0177C53.114 48.8316 53.1793 48.653 53.2885 48.5017C53.8524 47.7177 54.3494 46.8878 54.7743 46.0206C54.8944 45.7814 55.1043 45.5993 55.3581 45.5143C55.6119 45.4292 55.8891 45.448 56.1291 45.5666C56.3691 45.6852 56.5525 45.894 56.6391 46.1473C56.7257 46.4006 56.7086 46.6778 56.5915 46.9186C56.117 47.8861 55.562 48.8119 54.9324 49.6865C54.8386 49.8168 54.7152 49.9231 54.5723 49.9964C54.4293 50.0697 54.2711 50.108 54.1104 50.1081Z" fill="white"/>
<path d="M43.35 42.6983C43.1427 42.6982 42.9405 42.6345 42.7706 42.5158C42.6007 42.3972 42.4712 42.2293 42.3996 42.0348C42.328 41.8403 42.3178 41.6285 42.3703 41.4281C42.4228 41.2276 42.5355 41.048 42.6932 40.9135L46.7047 37.5L42.6932 34.0865C42.5919 34 42.5086 33.8944 42.448 33.7756C42.3875 33.6569 42.351 33.5275 42.3405 33.3946C42.33 33.2618 42.3457 33.1282 42.3869 33.0014C42.428 32.8747 42.4937 32.7573 42.5802 32.6559C42.6668 32.5546 42.7724 32.4713 42.8911 32.4107C43.0098 32.3502 43.1393 32.3136 43.2721 32.3031C43.405 32.2926 43.5386 32.3084 43.6653 32.3496C43.7921 32.3907 43.9095 32.4564 44.0108 32.5429L48.9284 36.7277C49.0403 36.8229 49.1303 36.9412 49.1919 37.0746C49.2536 37.2079 49.2856 37.3531 49.2856 37.5C49.2856 37.6469 49.2536 37.7921 49.1919 37.9255C49.1303 38.0588 49.0403 38.1772 48.9284 38.2723L44.0108 42.4571C43.8264 42.6138 43.592 42.6994 43.35 42.6983Z" fill="white"/>
<path d="M31.65 42.6983C31.409 42.6987 31.1758 42.6132 30.9922 42.4571L26.0747 38.2723C25.9627 38.1772 25.8728 38.0588 25.8111 37.9255C25.7494 37.7921 25.7175 37.6469 25.7175 37.5C25.7175 37.3531 25.7494 37.2079 25.8111 37.0746C25.8728 36.9412 25.9627 36.8229 26.0747 36.7277L30.9922 32.5429C31.1969 32.3682 31.4626 32.2819 31.7309 32.3031C31.9992 32.3243 32.2481 32.4512 32.4228 32.6559C32.5975 32.8606 32.6838 33.1263 32.6626 33.3946C32.6414 33.6629 32.5145 33.9118 32.3098 34.0865L28.2953 37.5L32.3067 40.9135C32.4645 41.048 32.5772 41.2276 32.6297 41.4281C32.6822 41.6286 32.672 41.8403 32.6004 42.0348C32.5288 42.2293 32.3993 42.3972 32.2294 42.5159C32.0595 42.6345 31.8572 42.6982 31.65 42.6983Z" fill="white"/>
<path d="M34.0844 47.7213C33.964 47.7209 33.8446 47.6993 33.7317 47.6575C33.4797 47.564 33.2752 47.3743 33.163 47.1301C33.0509 46.8859 33.0404 46.6071 33.1337 46.3551L39.9658 27.9406C40.0124 27.8158 40.0831 27.7014 40.1739 27.6039C40.2647 27.5065 40.3737 27.4279 40.4949 27.3726C40.6161 27.3173 40.747 27.2864 40.8801 27.2817C41.0132 27.277 41.1459 27.2985 41.2707 27.3451C41.3955 27.3917 41.5098 27.4624 41.6073 27.5532C41.7047 27.644 41.7834 27.7531 41.8387 27.8742C41.8939 27.9954 41.9248 28.1263 41.9295 28.2594C41.9343 28.3925 41.9127 28.5252 41.8661 28.65L35.034 47.0595C34.9622 47.2536 34.8328 47.421 34.663 47.5393C34.4932 47.6576 34.2913 47.7211 34.0844 47.7213Z" fill="white"/>
</svg>
