<svg width="70" height="70" viewBox="0 0 70 70" fill="none" xmlns="http://www.w3.org/2000/svg">
<g clip-path="url(#clip0)">
<path d="M68.9726 67.9452H62.3287V27.3288C62.3287 26.7615 61.8688 26.3014 61.3013 26.3014H50.3424C49.7749 26.3014 49.315 26.7615 49.315 27.3288V67.9452H41.5069V39.3836C41.5069 38.8162 41.0469 38.3562 40.4794 38.3562H29.5206C28.9531 38.3562 28.4931 38.8162 28.4931 39.3836V67.9452H20.685V44.863C20.685 44.2956 20.2251 43.8356 19.6576 43.8356H8.69873C8.13121 43.8356 7.67129 44.2956 7.67129 44.863V67.9451H1.02744C0.459922 67.9451 0 68.4052 0 68.9725C0 69.5399 0.459922 70 1.02744 70H68.9726C69.5401 70 70 69.5399 70 68.9725C69.9999 68.4052 69.5401 67.9452 68.9726 67.9452ZM18.6301 67.9452H9.72604V45.8905H18.6301V67.9452ZM39.4521 67.9452H30.548V40.411H39.4521V67.9452ZM60.274 67.9452H51.3699V28.3563H60.274V67.9452Z" fill="white"/>
<path d="M66.7199 0.805953C66.0274 0.194684 65.1058 -0.0901013 64.1897 0.0250158L55.4227 1.12095C53.6822 1.33847 52.4099 2.97213 52.6277 4.71433C52.8477 6.47486 54.4584 7.72953 56.2212 7.50941L56.9365 7.42013C46.1761 19.8965 33.3837 26.3445 24.3442 29.585C13.0729 33.6257 4.30009 33.9713 4.21464 33.9742C2.44236 34.0296 1.044 35.5167 1.09759 37.2892C1.15064 39.0398 2.56335 40.4109 4.31404 40.4109C4.34658 40.4109 4.37925 40.4105 4.41275 40.4094C4.80281 40.3977 14.1026 40.0693 26.3546 35.7036C33.2422 33.2492 39.7232 29.991 45.6173 26.0198C46.0879 25.7028 46.2123 25.0641 45.8951 24.5936C45.5782 24.1229 44.9397 23.9986 44.469 24.3157C38.7175 28.1911 32.3909 31.3713 25.6649 33.768C13.7139 38.0264 4.72706 38.3441 4.35122 38.3555L4.31404 38.356C3.6813 38.356 3.17052 37.8602 3.15138 37.227C3.13197 36.5858 3.63782 36.0479 4.27931 36.0279C4.369 36.025 13.3922 35.6938 25.0376 31.5191C34.7937 28.0217 48.812 20.8805 60.1915 6.72136C60.7581 6.01644 60.1591 4.94607 59.2635 5.05832L55.9669 5.47039C55.3954 5.54107 54.8404 5.1666 54.6953 4.60851C54.5209 3.93695 54.9901 3.2457 55.6778 3.15957L64.4451 2.06363C65.1297 1.97709 65.7537 2.53039 65.7537 3.21904V11.9861C65.7537 12.6282 65.2314 13.1506 64.5892 13.1506C63.9471 13.1506 63.4248 12.6283 63.4248 11.9861V9.32832C63.4248 8.90845 63.1533 8.5158 62.7606 8.36746C62.355 8.2142 61.8756 8.34285 61.6014 8.67863C57.7641 13.3805 53.3948 17.6352 48.6147 21.3244C48.1656 21.6711 48.0824 22.3163 48.4291 22.7656C48.7758 23.2148 49.4212 23.2978 49.8702 22.9512C54.034 19.7377 57.8936 16.1063 61.3733 12.1312C61.4494 13.8392 62.8627 15.2056 64.5894 15.2056C66.3644 15.2056 67.8085 13.7614 67.8085 11.9864V3.21931C67.8084 2.29646 67.4117 1.41668 66.7199 0.805953Z" fill="white"/>
</g>
<defs>
<clipPath id="clip0">
<rect width="70" height="70" fill="white"/>
</clipPath>
</defs>
</svg>
